#!OML:ASF F:\VICON\USERDATA\INSTALL\rory3\rory3.ASF
:FULLY-SPECIFIED
:DEGREES
164
root -0.390163 16.2123 -4.23145 1.07233 -1.44037 6.37664
lowerback 13.0272 0.00395691 -10.0863
upperback -4.52409 -1.7211 0.842746
thorax -12.1021 0.0090782 7.0514
lowerneck -10.9577 -4.15773 -2.67871
upperneck 18.9031 -5.55252 1.50318
head 7.75029 -2.70326 0.385181
rclavicle -4.27387e-015 1.51076e-014
rhumerus -52.2715 -13.3176 -72.5898
rradius 19.726
rwrist 8.10819
rhand -7.54163 20.2099
rfingers 7.12502
rthumb 18.3498 -8.94458
lclavicle -4.27387e-015 1.51076e-014
lhumerus -31.378 -0.676065 87.4789
lradius 32.2267
lwrist 5.45417
lhand -5.89404 18.0988
lfingers 7.12502
lthumb 19.9342 47.0963
rfemur -34.9716 11.3745 12.0231
rtibia 34.4276
rfoot -6.67735 -11.5901
rtoes -10.1853
lfemur 7.78533 -13.5239 -36.2847
ltibia 13.1869
lfoot -15.5538 10.7071
ltoes 14.4945
165
root -0.405371 16.2186 -4.10587 1.23134 -1.10657 6.47028
lowerback 12.9651 -0.0701714 -10.2076
upperback -4.50548 -1.83683 0.820295
thorax -12.0193 -0.0433763 7.11787
lowerneck -10.5424 -4.16749 -2.75786
upperneck 18.3774 -5.59214 1.72555
head 7.51292 -2.71297 0.481164
rclavicle 5.14355e-015 8.74653e-015
rhumerus -52.2744 -13.4724 -72.6078
rradius 19.6772
rwrist 8.02267
rhand -7.45304 19.9059
rfingers 7.12502
rthumb 18.4351 -9.24056
lclavicle 5.14355e-015 8.74653e-015
lhumerus -31.1634 -0.877587 87.551
lradius 32.2475
lwrist 5.69819
lhand -5.63411 18.2082
lfingers 7.12502
lthumb 20.1841 47.1796
rfemur -34.8555 12.9562 11.0074
rtibia 32.0285
rfoot -6.8772 -12.615
rtoes -11.2776
lfemur 9.20819 -13.4199 -36.2859
ltibia 11.2137
lfoot -14.8357 10.3672
ltoes 13.052
166
root -0.414211 16.2232 -3.96637 1.36987 -0.922733 6.64428
lowerback 12.7036 -0.105728 -10.2628
upperback -4.41201 -1.87031 0.708011
thorax -11.7492 -0.081715 7.01738
lowerneck -10.2269 -4.20481 -2.83478
upperneck 17.874 -5.6812 2.02357
head 7.30567 -2.73907 0.593449
rclavicle -1.15047e-014 -6.75868e-015
rhumerus -52.2903 -13.5075 -72.8768
rradius 19.7963
rwrist 7.63896
rhand -7.37904 19.7252
rfingers 7.12502
rthumb 18.5062 -9.41447
lclavicle -1.15047e-014 -6.75868e-015
lhumerus -30.9177 -1.135 87.5863
lradius 32.3399
lwrist 6.00299
lhand -5.50183 18.6017
lfingers 7.12502
lthumb 20.3112 47.5596
rfemur -34.7779 14.6308 9.8266
rtibia 29.8373
rfoot -8.16955 -13.5383
rtoes -9.23595
lfemur 10.8928 -13.2053 -36.448
ltibia 8.88649
lfoot -13.936 9.99838
ltoes 12.8726
167
root -0.423332 16.2232 -3.82544 1.46997 -0.944372 6.63882
lowerback 12.5839 -0.0495699 -10.1549
upperback -4.40427 -1.76992 0.629259
thorax -11.6915 -0.0502305 6.84117
lowerneck -10.3129 -4.26963 -2.79983
upperneck 17.7908 -5.81046 2.22537
head 7.30228 -2.78 0.639311
rclavicle -8.97016e-015 -3.97569e-015
rhumerus -52.4688 -13.7507 -72.9037
rradius 19.8111
rwrist 7.50245
rhand -7.22568 19.6433
rfingers 7.12502
rthumb 18.6538 -9.48229
lclavicle -8.97016e-015 -3.97569e-015
lhumerus -30.8016 -1.27551 87.5884
lradius 32.2352
lwrist 6.16865
lhand -5.53956 18.6602
lfingers 7.12502
lthumb 20.2749 47.622
rfemur -34.8039 16.6032 8.76921
rtibia 27.8796
rfoot -8.86272 -14.458
rtoes -7.53937
lfemur 13.1873 -12.7804 -36.4022
ltibia 5.59029
lfoot -12.69 9.71689
ltoes 12.4397
168
root -0.439704 16.2249 -3.69699 1.68251 -0.91636 6.77493
lowerback 12.526 -0.0163978 -10.3916
upperback -4.47394 -1.76458 0.62549
thorax -11.737 -0.0245936 6.97001
lowerneck -10.6498 -4.41533 -2.65818
upperneck 18.119 -5.98632 1.95469
head 7.46095 -2.8734 0.500379
rclavicle 2.60656e-014 -9.14409e-015
rhumerus -52.5767 -13.9542 -72.7641
rradius 19.7354
rwrist 7.57954
rhand -7.17056 19.4163
rfingers 7.12502
rthumb 18.7068 -9.70417
lclavicle 2.60656e-014 -9.14409e-015
lhumerus -30.6887 -1.2923 87.635
lradius 31.9928
lwrist 6.2353
lhand -5.67729 17.9665
lfingers 7.12502
lthumb 20.1425 46.9422
rfemur -35.1641 18.6241 7.44681
rtibia 26.2458
rfoot -9.53183 -15.6521
rtoes -7.55413
lfemur 16.633 -12.4563 -36.3806
ltibia 3.18055e-014
lfoot -10.4679 9.51658
ltoes 11.4177
169
root -0.456074 16.2315 -3.57312 1.9617 -0.601679 6.91966
lowerback 12.4498 -0.0750402 -10.5486
upperback -4.55808 -1.86586 0.634156
thorax -11.7665 -0.0552326 7.08962
lowerneck -10.8762 -4.58309 -2.79677
upperneck 18.5099 -6.17271 1.8275
head 7.63481 -2.9787 0.453143
rclavicle -2.26118e-015 1.11319e-014
rhumerus -52.6494 -14.4034 -72.3117
rradius 19.5366
rwrist 8.05832
rhand -7.01575 19.3151
rfingers 7.12502
rthumb 18.8557 -9.791
lclavicle -2.26118e-015 1.11319e-014
lhumerus -30.5994 -1.21177 87.72
lradius 31.9191
lwrist 6.09013
lhand -5.50504 17.8472
lfingers 7.12502
lthumb 20.3081 46.8055
rfemur -35.5744 20.2881 6.10916
rtibia 24.911
rfoot -10.4978 -16.921
rtoes -8.27031
lfemur 16.8791 -12.4155 -36.4313
ltibia 6.36111e-015
lfoot -10.6408 9.19115
ltoes 10.4278
170
root -0.470016 16.2352 -3.43825 2.07434 -0.121126 7.0618
lowerback 12.457 -0.195226 -10.5899
upperback -4.62956 -2.04457 0.593488
thorax -11.8177 -0.132745 7.10704
lowerneck -9.80075 -4.46099 -3.29065
upperneck 17.7241 -6.05524 2.51841
head 7.22188 -2.90964 0.802459
rclavicle -1.00138e-014 2.10712e-014
rhumerus -52.8306 -14.6971 -71.977
rradius 19.3249
rwrist 8.40304
rhand -6.90697 19.4901
rfingers 7.12502
rthumb 18.9603 -9.60577
lclavicle -1.00138e-014 2.10712e-014
lhumerus -30.714 -1.08994 87.7767
lradius 31.8983
lwrist 5.92637
lhand -5.46184 18.4434
lfingers 7.12502
lthumb 20.3496 47.3972
rfemur -35.7944 22.0826 4.75912
rtibia 23.936
rfoot -11.9964 -18.2373
rtoes -6.85497
lfemur 17.355 -12.4825 -36.5372
ltibia -3.18055e-015
lfoot -10.6914 8.88716
ltoes 8.96116
171
root -0.481441 16.2262 -3.29341 2.02115 0.1837 7.19715
lowerback 12.4659 -0.26621 -10.6098
upperback -4.58457 -2.14585 0.554671
thorax -11.7511 -0.18722 7.09526
lowerneck -10.416 -4.61394 -3.23869
upperneck 18.3769 -6.2264 2.25217
head 7.53945 -3.00114 0.670187
rclavicle -3.16316e-014 1.78906e-014
rhumerus -52.8589 -14.4593 -72.206
rradius 19.3337
rwrist 8.02506
rhand -7.08772 19.446
rfingers 7.12502
rthumb 18.7865 -9.66682
lclavicle -3.16316e-014 1.78906e-014
lhumerus -30.724 -1.07048 87.8362
lradius 31.7231
lwrist 5.79924
lhand -5.46962 18.628
lfingers 7.12502
lthumb 20.3421 47.5826
rfemur -35.9011 23.6441 3.69817
rtibia 23.2453
rfoot -13.3126 -19.1918
rtoes -4.4486
lfemur 17.9603 -12.3342 -36.661
ltibia -5.725e-014
lfoot -10.8293 8.51827
ltoes 8.02992
172
root -0.494179 16.2129 -3.15409 2.05061 0.461618 7.33086
lowerback 12.4861 -0.328428 -10.6743
upperback -4.574 -2.24489 0.532994
thorax -11.7305 -0.232051 7.12888
lowerneck -9.84386 -4.55303 -3.33969
upperneck 17.8681 -6.15393 2.39992
head 7.27735 -2.96915 0.76035
rclavicle -2.05245e-014 -1.03368e-014
rhumerus -52.8398 -14.3306 -72.3048
rradius 19.3315
rwrist 7.87065
rhand -7.1036 19.2909
rfingers 7.12502
rthumb 18.7712 -9.82337
lclavicle -2.05245e-014 -1.03368e-014
lhumerus -30.667 -0.897501 87.8383
lradius 31.4135
lwrist 5.49148
lhand -5.62717 18.0897
lfingers 7.12502
lthumb 20.1907 47.0604
rfemur -36.0188 24.4525 2.99201
rtibia 22.7439
rfoot -14.087 -19.7915
rtoes -3.74323
lfemur 18.4371 -12.1853 -36.7552
ltibia -3.49861e-014
lfoot -10.8989 8.17825
ltoes 7.28256
173
root -0.510339 16.2001 -3.0178 2.15749 0.834644 7.38037
lowerback 12.4789 -0.38841 -10.6482
upperback -4.6207 -2.32396 0.525231
thorax -11.7645 -0.267876 7.12269
lowerneck -9.50975 -4.54087 -3.52738
upperneck 17.684 -6.14733 2.60028
head 7.17079 -2.96547 0.86575
rclavicle -1.34677e-014 7.15625e-015
rhumerus -52.9169 -14.6458 -71.9953
rradius 19.1723
rwrist 8.16494
rhand -6.95594 19.1798
rfingers 7.12502
rthumb 18.9132 -9.92072
lclavicle -1.34677e-014 7.15625e-015
lhumerus -30.6486 -0.456191 87.7746
lradius 31.1139
lwrist 4.90296
lhand -5.46992 17.7398
lfingers 7.12502
lthumb 20.3419 46.6945
rfemur -36.1055 24.911 2.57015
rtibia 22.4174
rfoot -14.7758 -20.1927
rtoes -4.28363
lfemur 18.85 -12.1504 -36.7362
ltibia -2.54444e-014
lfoot -10.8011 7.99241
ltoes 5.83944
174
root -0.526215 16.1855 -2.87982 2.22593 1.09181 7.32251
lowerback 12.5093 -0.445881 -10.5377
upperback -4.67858 -2.3842 0.572341
thorax -11.8373 -0.295504 7.12838
lowerneck -9.72218 -4.53324 -3.58742
upperneck 17.8742 -6.12142 2.57825
head 7.27073 -2.9554 0.864175
rclavicle 2.67862e-014 -1.59028e-015
rhumerus -52.936 -14.8729 -71.6665
rradius 18.8914
rwrist 8.60602
rhand -7.01026 19.4219
rfingers 7.12502
rthumb 18.861 -9.6837
lclavicle 2.67862e-014 -1.59028e-015
lhumerus -30.7576 -0.235157 87.8141
lradius 30.922
lwrist 4.73268
lhand -5.25826 18.4047
lfingers 7.12502
lthumb 20.5453 47.3375
rfemur -36.0873 25.2418 2.47298
rtibia 22.2328
rfoot -15.1906 -20.4159
rtoes -4.04642
lfemur 19.3117 -11.9922 -36.6041
ltibia 5.08889e-014
lfoot -10.7644 7.85945
ltoes 3.99033
175
root -0.543738 16.1669 -2.73872 2.25346 1.29055 7.32243
lowerback 12.5372 -0.462132 -10.5024
upperback -4.69988 -2.40295 0.587382
thorax -11.8749 -0.303014 7.13099
lowerneck -9.80421 -4.54763 -3.5751
upperneck 17.8529 -6.13794 2.56921
head 7.27819 -2.9623 0.855915
rclavicle -1.44119e-014 -2.38542e-015
rhumerus -52.8883 -15.444 -71.0396
rradius 18.3546
rwrist 9.49371
rhand -7.12842 20.1375
rfingers 7.12502
rthumb 18.7473 -8.97906
lclavicle -1.44119e-014 -2.38542e-015
lhumerus -30.822 -0.0928685 87.8229
lradius 30.6505
lwrist 4.55182
lhand -5.29203 18.2366
lfingers 7.12502
lthumb 20.5128 47.173
rfemur -35.8449 25.1533 2.62094
rtibia 22.1597
rfoot -15.2232 -20.1421
rtoes -3.33662
lfemur 19.8078 -11.775 -36.5099
ltibia -1.90833e-014
lfoot -10.9309 7.36268
ltoes 3.35661
